<?xml version="1.0" encoding="utf-8"?>
<!-- Generator: Adobe Illustrator 25.4.1, SVG Export Plug-In . SVG Version: 6.00 Build 0)  -->
<svg version="1.1" id="Camada_1" xmlns="http://www.w3.org/2000/svg" xmlns:xlink="http://www.w3.org/1999/xlink" x="0px" y="0px"
	 viewBox="0 0 841.9 595.3" style="enable-background:new 0 0 841.9 595.3;" xml:space="preserve">
<style type="text/css">
	.st0{fill:#00217E;}
	.st1{fill:#00A4DC;}
	.st2{fill:#11100F;}
	.st3{fill:#FFFFFF;}
</style>
<g>
	<g>
		<g>
			<path class="st3" d="M491.7,317.9c-18.2,0-33.2-6-45.2-17.9c-12-11.9-18-27.3-18-46.2c0-19,6-34.4,18-46.3
				c12-11.9,27.1-17.8,45.2-17.8c14,0,26.4,3.4,37.1,10.2c10.7,6.8,17.7,16.6,20.9,29.5l-28.5,8.2c-1.5-5.9-5-10.7-10.2-14.3
				c-5.3-3.6-11.7-5.4-19.3-5.4c-9.6,0-17.5,3.3-23.6,10c-6.1,6.6-9.2,15.3-9.2,26c0,10.8,3.1,19.5,9.2,26.1
				c6.1,6.6,14,9.9,23.6,9.9c7.6,0,14-1.8,19.3-5.4c5.3-3.6,8.8-8.4,10.4-14.3l28.3,8.2c-3.2,12.8-10.2,22.6-20.9,29.5
				C518.1,314.5,505.7,317.9,491.7,317.9z"/>
			<path class="st3" d="M564,316.2V191.5h85.8v26.4h-56.6v22.6h53.1v26.4h-53.1v23h58v26.4H564z"/>
			<path class="st3" d="M718.4,317.9c-15.2,0-27.4-4.7-36.6-14.1c-9.2-9.4-13.8-21.7-13.8-37v-75.5l29.2,0.2V267
				c0,6.9,2,12.4,6,16.6c4,4.2,9.1,6.2,15.4,6.2c6.3,0,11.3-2.1,15.1-6.2c3.8-4.2,5.7-9.7,5.7-16.6v-75.5l29.2,0.2v75.5
				c0,15.2-4.6,27.5-13.8,36.8C745.6,313.3,733.5,317.9,718.4,317.9z"/>
		</g>
		<g>
			<path class="st3" d="M441.2,356.5c-3.6,0-6.7-1.2-9.1-3.6c-2.4-2.4-3.6-5.5-3.6-9.3c0-3.8,1.2-6.9,3.6-9.3
				c2.4-2.4,5.4-3.6,9.1-3.6c2.8,0,5.3,0.7,7.5,2.1c2.2,1.4,3.6,3.3,4.2,5.9l-5.7,1.6c-0.3-1.2-1-2.2-2.1-2.9
				c-1.1-0.7-2.4-1.1-3.9-1.1c-1.9,0-3.5,0.7-4.7,2s-1.8,3.1-1.8,5.2c0,2.2,0.6,3.9,1.8,5.2s2.8,2,4.7,2c1.5,0,2.8-0.4,3.9-1.1
				c1.1-0.7,1.8-1.7,2.1-2.9l5.7,1.6c-0.6,2.6-2,4.5-4.2,5.9C446.5,355.8,444,356.5,441.2,356.5z"/>
			<path class="st3" d="M471.9,351.6c0.2,0,0.5-0.1,0.8-0.2v4.8c-0.5,0.2-1.2,0.3-2.1,0.3c-2.3,0-3.8-0.6-4.6-1.9
				c-1.2,1.3-3,1.9-5.3,1.9c-1.8,0-3.3-0.5-4.4-1.4c-1.1-1-1.7-2.3-1.7-3.9c0-1.5,0.5-2.8,1.5-3.8c1-1,2.4-1.5,4.1-1.7l5.1-0.5v-0.4
				c0-0.7-0.2-1.2-0.7-1.7c-0.5-0.4-1.1-0.6-1.8-0.6c-1.3,0-2.1,0.6-2.4,1.9l-5.1-0.7c0.3-2,1.2-3.5,2.7-4.4
				c1.5-0.9,3.2-1.4,5.3-1.4c2.4,0,4.3,0.6,5.7,1.7c1.4,1.2,2.1,2.8,2.1,4.9v5.9C471.1,351.3,471.3,351.6,471.9,351.6z M465.3,349.2
				v-0.4l-3.4,0.4c-0.6,0.1-1,0.3-1.4,0.6c-0.3,0.3-0.5,0.7-0.5,1.1c0,0.5,0.2,0.8,0.6,1.1c0.4,0.3,0.9,0.4,1.6,0.4
				c0.9,0,1.6-0.3,2.1-0.9C465.1,350.9,465.3,350.2,465.3,349.2z"/>
			<path class="st3" d="M485.5,338.1c1,0,1.9,0.1,2.5,0.4l-0.8,5.4c-0.9-0.3-1.8-0.5-2.8-0.5c-1,0-1.8,0.3-2.5,0.9
				c-0.7,0.6-1,1.6-1,2.9v8.9h-5.7v-17.7h5.7v1.5C482,338.7,483.6,338.1,485.5,338.1z"/>
			<path class="st3" d="M499.3,356.5c-2,0-3.7-0.5-5.1-1.6c-1.4-1.1-2.1-2.8-2.1-5.2v-6.4h-3.2v-4.9h2.2c0.6-0.8,1-2.4,1-5h5.7v5h5
				v4.9h-5v6c0,1.6,0.9,2.5,2.6,2.5c0.8,0,1.5-0.1,2.1-0.4l0.7,4.4C502,356.3,500.7,356.5,499.3,356.5z"/>
			<path class="st3" d="M521.6,351.6c0.2,0,0.5-0.1,0.8-0.2v4.8c-0.5,0.2-1.2,0.3-2.1,0.3c-2.3,0-3.8-0.6-4.6-1.9
				c-1.2,1.3-3,1.9-5.3,1.9c-1.8,0-3.3-0.5-4.4-1.4c-1.1-1-1.7-2.3-1.7-3.9c0-1.5,0.5-2.8,1.5-3.8c1-1,2.4-1.5,4.1-1.7l5.1-0.5v-0.4
				c0-0.7-0.2-1.2-0.7-1.7c-0.5-0.4-1.1-0.6-1.8-0.6c-1.3,0-2.1,0.6-2.4,1.9l-5.1-0.7c0.3-2,1.2-3.5,2.7-4.4
				c1.5-0.9,3.2-1.4,5.3-1.4c2.4,0,4.3,0.6,5.7,1.7c1.4,1.2,2.1,2.8,2.1,4.9v5.9C520.7,351.3,521,351.6,521.6,351.6z M509.4,336.2
				h-3.2c0-1.4,0.4-2.5,1.2-3.4c0.8-0.8,1.9-1.2,3.2-1.2c1,0,1.9,0.3,3,0.8c1,0.5,1.7,0.8,2.1,0.8c0.7,0,1.2-0.4,1.4-1.3h3.2
				c0,1.4-0.4,2.5-1.2,3.4c-0.8,0.8-1.9,1.2-3.2,1.2c-1,0-1.9-0.3-2.9-0.8c-1-0.5-1.7-0.8-2.1-0.8
				C510,334.8,509.6,335.3,509.4,336.2z M515,349.2v-0.4l-3.4,0.4c-0.6,0.1-1,0.3-1.4,0.6c-0.3,0.3-0.5,0.7-0.5,1.1
				c0,0.5,0.2,0.8,0.6,1.1c0.4,0.3,0.9,0.4,1.6,0.4c0.9,0,1.6-0.3,2.1-0.9C514.7,350.9,515,350.2,515,349.2z"/>
			<path class="st3" d="M533.5,356.5c-2.7,0-5-0.9-6.9-2.6c-1.8-1.7-2.8-3.9-2.8-6.6c0-2.7,0.9-5,2.8-6.7c1.8-1.7,4.1-2.6,6.9-2.6
				c2.8,0,5.1,0.9,6.9,2.6c1.8,1.7,2.8,3.9,2.8,6.7c0,2.7-0.9,4.9-2.8,6.6C538.5,355.7,536.2,356.5,533.5,356.5z M530.8,350.3
				c0.7,0.7,1.6,1.1,2.7,1.1c1.1,0,2-0.4,2.7-1.1c0.7-0.7,1.1-1.7,1.1-3c0-1.3-0.4-2.3-1.1-3c-0.7-0.7-1.6-1.1-2.7-1.1
				c-1.1,0-2,0.4-2.7,1.1c-0.7,0.7-1.1,1.7-1.1,3C529.7,348.6,530.1,349.6,530.8,350.3z"/>
			<path class="st3" d="M567.4,331.2h5.7v25h-5.7v-1.6c-1.3,1.3-3,1.9-5.1,1.9c-2.5,0-4.5-0.9-6.2-2.6c-1.7-1.7-2.5-3.9-2.5-6.6
				c0-2.7,0.8-4.9,2.5-6.6c1.7-1.7,3.8-2.6,6.2-2.6c2.1,0,3.8,0.6,5.1,1.9V331.2z M560.6,350.4c0.8,0.8,1.7,1.2,2.8,1.2
				c1.1,0,2.1-0.4,2.8-1.2c0.8-0.8,1.1-1.8,1.1-3.1c0-1.3-0.4-2.3-1.1-3.1s-1.7-1.2-2.8-1.2c-1.1,0-2.1,0.4-2.8,1.2
				c-0.8,0.8-1.1,1.8-1.1,3.1C559.5,348.6,559.8,349.6,560.6,350.4z"/>
			<path class="st3" d="M585,356.6c-2.7,0-5-0.9-6.8-2.6c-1.8-1.7-2.7-3.9-2.7-6.7c0-2.7,0.9-4.9,2.7-6.6c1.8-1.7,4-2.6,6.6-2.6
				c2.6,0,4.7,0.8,6.4,2.4c1.7,1.6,2.5,3.7,2.5,6.3c0,0.5,0,1.1-0.1,1.8h-12.3c0.2,1.1,0.6,2,1.3,2.5c0.7,0.6,1.4,0.9,2.4,0.9
				c0.8,0,1.5-0.2,2-0.6c0.6-0.4,0.9-0.9,1.1-1.6l5,1.3c-0.5,1.8-1.4,3.1-2.9,4C588.7,356.1,587,356.6,585,356.6z M581.5,345.1h6.8
				c-0.1-0.6-0.5-1.2-1.1-1.7c-0.6-0.5-1.4-0.7-2.3-0.7C583.2,342.7,582.1,343.5,581.5,345.1z"/>
			<path class="st3" d="M605.4,356.2v-25h17.2v5.3h-11.4v4.5h10.7v5.3h-10.7v4.6h11.7v5.3H605.4z"/>
			<path class="st3" d="M638.9,354.9c-1.5,1.1-3.3,1.6-5.4,1.6c-2.1,0-3.9-0.4-5.3-1.3c-1.5-0.9-2.4-2.1-2.8-3.7l4.8-1.2
				c0.2,0.5,0.6,1,1.1,1.3c0.6,0.3,1.2,0.4,1.9,0.4c0.6,0,1.1-0.1,1.6-0.3c0.4-0.2,0.6-0.5,0.6-0.9c0-0.4-0.2-0.6-0.5-0.8
				c-0.3-0.2-0.9-0.3-1.6-0.4c-0.6-0.1-1.1-0.1-1.3-0.2c-0.3,0-0.7-0.1-1.4-0.3c-0.7-0.1-1.2-0.3-1.5-0.4c-0.4-0.2-0.8-0.4-1.3-0.7
				c-0.5-0.3-0.9-0.6-1.2-1s-0.5-0.8-0.7-1.3c-0.2-0.5-0.3-1.1-0.3-1.8c0-1.9,0.7-3.3,2.2-4.3c1.4-1,3.3-1.5,5.5-1.5
				c1.9,0,3.5,0.4,4.9,1.3c1.4,0.8,2.2,2.1,2.6,3.7l-4.8,1.3c-0.1-0.6-0.5-1-1-1.3c-0.5-0.3-1.1-0.4-1.8-0.4c-1.1,0-1.6,0.4-1.6,1.1
				c0,0.6,0.5,1,1.6,1.2c0.1,0,0.5,0.1,1.1,0.1c0.6,0.1,1.1,0.1,1.5,0.2c0.4,0.1,0.9,0.2,1.6,0.4c0.7,0.2,1.2,0.4,1.6,0.6
				c0.4,0.3,0.8,0.6,1.3,0.9c0.4,0.4,0.8,0.8,1,1.4c0.2,0.6,0.3,1.2,0.3,1.9C641.2,352.4,640.4,353.8,638.9,354.9z"/>
			<path class="st3" d="M652.8,356.5c-2,0-3.7-0.5-5.1-1.6c-1.4-1.1-2.1-2.8-2.1-5.2v-6.4h-3.2v-4.9h2.2c0.6-0.8,1-2.4,1-5h5.7v5h5
				v4.9h-5v6c0,1.6,0.9,2.5,2.6,2.5c0.8,0,1.5-0.1,2.1-0.4l0.7,4.4C655.5,356.3,654.2,356.5,652.8,356.5z"/>
			<path class="st3" d="M670.1,338.5h5.7v17.7h-5.7v-1.5c-1.2,1.2-2.8,1.8-4.8,1.8c-1.9,0-3.5-0.6-4.8-1.8c-1.3-1.2-2-2.9-2-5.2v-11
				h5.7v9.8c0,1,0.3,1.8,0.8,2.3c0.5,0.5,1.2,0.8,2.1,0.8c0.9,0,1.6-0.3,2.2-0.9c0.5-0.6,0.8-1.4,0.8-2.5V338.5z"/>
			<path class="st3" d="M692.1,331.2h5.7v25h-5.7v-1.6c-1.3,1.3-3,1.9-5.1,1.9c-2.5,0-4.5-0.9-6.2-2.6c-1.7-1.7-2.5-3.9-2.5-6.6
				c0-2.7,0.8-4.9,2.5-6.6c1.7-1.7,3.8-2.6,6.2-2.6c2.1,0,3.8,0.6,5.1,1.9V331.2z M685.3,350.4c0.8,0.8,1.7,1.2,2.8,1.2
				c1.1,0,2.1-0.4,2.8-1.2c0.8-0.8,1.1-1.8,1.1-3.1c0-1.3-0.4-2.3-1.1-3.1s-1.7-1.2-2.8-1.2c-1.1,0-2.1,0.4-2.8,1.2
				c-0.8,0.8-1.1,1.8-1.1,3.1C684.2,348.6,684.5,349.6,685.3,350.4z"/>
			<path class="st3" d="M717.7,351.6c0.2,0,0.5-0.1,0.8-0.2v4.8c-0.5,0.2-1.2,0.3-2.1,0.3c-2.3,0-3.8-0.6-4.6-1.9
				c-1.2,1.3-3,1.9-5.3,1.9c-1.8,0-3.3-0.5-4.4-1.4c-1.1-1-1.7-2.3-1.7-3.9c0-1.5,0.5-2.8,1.5-3.8c1-1,2.4-1.5,4.1-1.7l5.1-0.5v-0.4
				c0-0.7-0.2-1.2-0.7-1.7c-0.5-0.4-1.1-0.6-1.8-0.6c-1.3,0-2.1,0.6-2.4,1.9l-5.1-0.7c0.3-2,1.2-3.5,2.7-4.4
				c1.5-0.9,3.2-1.4,5.3-1.4c2.4,0,4.3,0.6,5.7,1.7c1.4,1.2,2.1,2.8,2.1,4.9v5.9C716.8,351.3,717.1,351.6,717.7,351.6z M711.1,349.2
				v-0.4l-3.4,0.4c-0.6,0.1-1,0.3-1.4,0.6c-0.3,0.3-0.5,0.7-0.5,1.1c0,0.5,0.2,0.8,0.6,1.1c0.4,0.3,0.9,0.4,1.6,0.4
				c0.9,0,1.6-0.3,2.1-0.9C710.8,350.9,711.1,350.2,711.1,349.2z"/>
			<path class="st3" d="M731.4,338.1c2,0,3.6,0.6,4.9,1.8c1.3,1.2,1.9,2.8,1.9,4.9v11.4h-5.7v-9.7c0-1.1-0.3-1.9-0.8-2.4
				c-0.5-0.5-1.2-0.8-2.1-0.8c-0.9,0-1.6,0.3-2.2,0.9c-0.5,0.6-0.8,1.4-0.8,2.5v9.5h-5.7v-17.7h5.7v1.5
				C727.8,338.7,729.4,338.1,731.4,338.1z"/>
			<path class="st3" d="M750.6,356.5c-2,0-3.7-0.5-5.1-1.6c-1.4-1.1-2.1-2.8-2.1-5.2v-6.4h-3.2v-4.9h2.2c0.6-0.8,1-2.4,1-5h5.7v5h5
				v4.9h-5v6c0,1.6,0.9,2.5,2.6,2.5c0.8,0,1.5-0.1,2.1-0.4l0.7,4.4C753.4,356.3,752.1,356.5,750.6,356.5z"/>
			<path class="st3" d="M764.6,356.6c-2.7,0-5-0.9-6.8-2.6c-1.8-1.7-2.7-3.9-2.7-6.7c0-2.7,0.9-4.9,2.7-6.6c1.8-1.7,4-2.6,6.6-2.6
				c2.6,0,4.7,0.8,6.4,2.4c1.7,1.6,2.5,3.7,2.5,6.3c0,0.5,0,1.1-0.1,1.8h-12.3c0.2,1.1,0.6,2,1.3,2.5c0.7,0.6,1.4,0.9,2.4,0.9
				c0.8,0,1.5-0.2,2-0.6c0.6-0.4,0.9-0.9,1.1-1.6l5,1.3c-0.5,1.8-1.4,3.1-2.9,4C768.3,356.1,766.6,356.6,764.6,356.6z M761.1,345.1
				h6.8c-0.1-0.6-0.5-1.2-1.1-1.7c-0.6-0.5-1.4-0.7-2.3-0.7C762.8,342.7,761.7,343.5,761.1,345.1z"/>
			<path class="st3" d="M439.4,391.6c-3.1,0-5.5-0.9-7.3-2.8c-1.8-1.9-2.8-4.4-2.8-7.4v-15.2l5.9,0v15.2c0,1.4,0.4,2.5,1.2,3.3
				c0.8,0.8,1.8,1.3,3.1,1.3c1.3,0,2.3-0.4,3-1.3c0.8-0.8,1.1-1.9,1.1-3.3v-15.2l5.9,0v15.2c0,3.1-0.9,5.5-2.8,7.4
				C444.9,390.7,442.5,391.6,439.4,391.6z"/>
			<path class="st3" d="M463.5,373.2c2,0,3.6,0.6,4.9,1.8c1.3,1.2,1.9,2.8,1.9,4.9v11.4h-5.7v-9.7c0-1.1-0.3-1.9-0.8-2.4
				c-0.5-0.5-1.2-0.8-2.1-0.8s-1.6,0.3-2.2,0.9c-0.5,0.6-0.8,1.4-0.8,2.5v9.5H453v-17.7h5.7v1.5
				C459.9,373.8,461.5,373.2,463.5,373.2z"/>
			<path class="st3" d="M479.3,370.6c-0.7,0.7-1.6,1-2.6,1s-1.8-0.3-2.5-1c-0.7-0.7-1-1.5-1-2.4c0-1,0.3-1.8,1-2.5
				c0.7-0.7,1.5-1,2.5-1s1.9,0.3,2.6,1c0.7,0.7,1.1,1.5,1.1,2.5C480.4,369.1,480,369.9,479.3,370.6z M473.9,391.3v-17.7h5.7v17.7
				H473.9z"/>
			<path class="st3" d="M496.2,373.6h5.9l-7.1,17.7h-6.1l-7.1-17.7h6l4.2,11.5L496.2,373.6z"/>
			<path class="st3" d="M511.7,391.7c-2.7,0-5-0.9-6.8-2.6c-1.8-1.7-2.7-3.9-2.7-6.7c0-2.7,0.9-4.9,2.7-6.6c1.8-1.7,4-2.6,6.6-2.6
				c2.6,0,4.7,0.8,6.4,2.4c1.7,1.6,2.5,3.7,2.5,6.3c0,0.5,0,1.1-0.1,1.8h-12.3c0.2,1.1,0.6,2,1.3,2.5c0.7,0.6,1.4,0.9,2.4,0.9
				c0.8,0,1.5-0.2,2-0.6c0.6-0.4,0.9-0.9,1.1-1.6l5,1.3c-0.5,1.8-1.4,3.1-2.9,4C515.4,391.2,513.7,391.7,511.7,391.7z M508.2,380.2
				h6.8c-0.1-0.6-0.5-1.2-1.1-1.7c-0.6-0.5-1.4-0.7-2.3-0.7C509.9,377.8,508.8,378.6,508.2,380.2z"/>
			<path class="st3" d="M533.4,373.2c1,0,1.9,0.1,2.5,0.4l-0.8,5.4c-0.9-0.3-1.8-0.5-2.8-0.5c-1,0-1.8,0.3-2.5,0.9
				c-0.7,0.6-1,1.6-1,2.9v8.9H523v-17.7h5.7v1.5C529.9,373.8,531.5,373.2,533.4,373.2z"/>
			<path class="st3" d="M550.8,390c-1.5,1.1-3.3,1.6-5.4,1.6c-2.1,0-3.9-0.4-5.3-1.3c-1.5-0.9-2.4-2.1-2.8-3.7l4.8-1.2
				c0.2,0.5,0.6,1,1.1,1.3c0.6,0.3,1.2,0.4,1.9,0.4c0.6,0,1.1-0.1,1.6-0.3c0.4-0.2,0.6-0.5,0.6-0.9c0-0.4-0.2-0.6-0.5-0.8
				c-0.3-0.2-0.9-0.3-1.6-0.4c-0.6-0.1-1.1-0.1-1.3-0.2c-0.3,0-0.7-0.1-1.4-0.3c-0.7-0.1-1.2-0.3-1.5-0.4c-0.4-0.2-0.8-0.4-1.3-0.7
				c-0.5-0.3-0.9-0.6-1.2-1c-0.3-0.4-0.5-0.8-0.7-1.3c-0.2-0.5-0.3-1.1-0.3-1.8c0-1.9,0.7-3.3,2.2-4.3c1.4-1,3.3-1.5,5.5-1.5
				c1.9,0,3.5,0.4,4.9,1.3c1.4,0.8,2.2,2.1,2.6,3.7l-4.8,1.3c-0.1-0.6-0.5-1-1-1.3c-0.5-0.3-1.1-0.4-1.8-0.4c-1.1,0-1.6,0.4-1.6,1.1
				c0,0.6,0.5,1,1.6,1.2c0.1,0,0.5,0.1,1.1,0.1c0.6,0.1,1.1,0.1,1.5,0.2c0.4,0.1,0.9,0.2,1.6,0.4c0.7,0.2,1.2,0.4,1.6,0.6
				c0.4,0.3,0.8,0.6,1.3,0.9c0.4,0.4,0.8,0.8,1,1.4c0.2,0.6,0.3,1.2,0.3,1.9C553.1,387.5,552.3,389,550.8,390z"/>
			<path class="st3" d="M561.3,370.6c-0.7,0.7-1.6,1-2.6,1s-1.8-0.3-2.5-1c-0.7-0.7-1-1.5-1-2.4c0-1,0.3-1.8,1-2.5
				c0.7-0.7,1.5-1,2.5-1s1.9,0.3,2.6,1c0.7,0.7,1.1,1.5,1.1,2.5C562.3,369.1,562,369.9,561.3,370.6z M555.8,391.3v-17.7h5.7v17.7
				H555.8z"/>
			<path class="st3" d="M574.4,391.6c-2,0-3.7-0.5-5.1-1.6c-1.4-1.1-2.1-2.8-2.1-5.2v-6.4H564v-4.9h2.2c0.6-0.8,1-2.4,1-5h5.7v5h5
				v4.9h-5v6c0,1.6,0.9,2.5,2.6,2.5c0.8,0,1.5-0.1,2.1-0.4l0.7,4.4C577.1,391.4,575.8,391.6,574.4,391.6z"/>
			<path class="st3" d="M596.7,386.7c0.2,0,0.5-0.1,0.8-0.2v4.8c-0.5,0.2-1.2,0.3-2.1,0.3c-2.3,0-3.8-0.6-4.6-1.9
				c-1.2,1.3-3,1.9-5.3,1.9c-1.8,0-3.3-0.5-4.4-1.4c-1.1-1-1.7-2.3-1.7-3.9c0-1.5,0.5-2.8,1.5-3.8s2.4-1.5,4.1-1.7l5.1-0.5V380
				c0-0.7-0.2-1.2-0.7-1.7c-0.5-0.4-1.1-0.6-1.8-0.6c-1.3,0-2.1,0.6-2.4,1.9l-5.1-0.7c0.3-2,1.2-3.5,2.7-4.4
				c1.5-0.9,3.2-1.4,5.3-1.4c2.4,0,4.3,0.6,5.7,1.7s2.1,2.8,2.1,4.9v5.9C595.8,386.4,596.1,386.7,596.7,386.7z M590.1,384.3V384
				l-3.4,0.4c-0.6,0.1-1,0.3-1.4,0.6c-0.3,0.3-0.5,0.7-0.5,1.1c0,0.5,0.2,0.8,0.6,1.1c0.4,0.3,0.9,0.4,1.6,0.4
				c0.9,0,1.6-0.3,2.1-0.9C589.8,386,590.1,385.3,590.1,384.3z M593.8,365.3l-3.5,5.8h-4.2l2.3-5.8H593.8z"/>
			<path class="st3" d="M610.2,373.2c1,0,1.9,0.1,2.5,0.4L612,379c-0.9-0.3-1.8-0.5-2.8-0.5c-1,0-1.8,0.3-2.5,0.9
				c-0.7,0.6-1,1.6-1,2.9v8.9h-5.7v-17.7h5.7v1.5C606.8,373.8,608.3,373.2,610.2,373.2z"/>
			<path class="st3" d="M620.6,370.6c-0.7,0.7-1.6,1-2.6,1s-1.8-0.3-2.5-1c-0.7-0.7-1-1.5-1-2.4c0-1,0.3-1.8,1-2.5
				c0.7-0.7,1.5-1,2.5-1s1.9,0.3,2.6,1c0.7,0.7,1.1,1.5,1.1,2.5C621.6,369.1,621.3,369.9,620.6,370.6z M615.2,391.3v-17.7h5.7v17.7
				H615.2z"/>
			<path class="st3" d="M633.3,391.6c-2.7,0-5-0.9-6.9-2.6c-1.8-1.7-2.8-3.9-2.8-6.6c0-2.7,0.9-5,2.8-6.7c1.8-1.7,4.1-2.6,6.9-2.6
				c2.8,0,5.1,0.9,6.9,2.6c1.8,1.7,2.8,3.9,2.8,6.7c0,2.7-0.9,4.9-2.8,6.6C638.4,390.8,636.1,391.6,633.3,391.6z M630.6,385.4
				c0.7,0.7,1.6,1.1,2.7,1.1c1.1,0,2-0.4,2.7-1.1c0.7-0.7,1.1-1.7,1.1-3c0-1.3-0.4-2.3-1.1-3c-0.7-0.7-1.6-1.1-2.7-1.1
				c-1.1,0-2,0.4-2.7,1.1c-0.7,0.7-1.1,1.7-1.1,3C629.6,383.7,629.9,384.7,630.6,385.4z"/>
			<path class="st3" d="M664.5,391.6c-3.1,0-5.5-0.9-7.3-2.8c-1.8-1.9-2.8-4.4-2.8-7.4v-15.2l5.9,0v15.2c0,1.4,0.4,2.5,1.2,3.3
				c0.8,0.8,1.8,1.3,3.1,1.3c1.3,0,2.3-0.4,3-1.3c0.8-0.8,1.1-1.9,1.1-3.3v-15.2l5.9,0v15.2c0,3.1-0.9,5.5-2.8,7.4
				C669.9,390.7,667.5,391.6,664.5,391.6z"/>
			<path class="st3" d="M688.6,373.2c2,0,3.6,0.6,4.9,1.8c1.3,1.2,1.9,2.8,1.9,4.9v11.4h-5.7v-9.7c0-1.1-0.3-1.9-0.8-2.4
				c-0.5-0.5-1.2-0.8-2.1-0.8c-0.9,0-1.6,0.3-2.2,0.9c-0.5,0.6-0.8,1.4-0.8,2.5v9.5h-5.7v-17.7h5.7v1.5
				C684.9,373.8,686.5,373.2,688.6,373.2z"/>
			<path class="st3" d="M707.3,391.7c-2.7,0-5-0.9-6.8-2.6c-1.8-1.7-2.7-3.9-2.7-6.7c0-2.7,0.9-4.9,2.7-6.6c1.8-1.7,4-2.6,6.6-2.6
				c2.6,0,4.7,0.8,6.4,2.4c1.7,1.6,2.5,3.7,2.5,6.3c0,0.5,0,1.1-0.1,1.8h-12.3c0.2,1.1,0.6,2,1.3,2.5c0.7,0.6,1.4,0.9,2.4,0.9
				c0.8,0,1.5-0.2,2-0.6c0.6-0.4,0.9-0.9,1.1-1.6l5,1.3c-0.5,1.8-1.4,3.1-2.9,4C710.9,391.2,709.2,391.7,707.3,391.7z M703.8,380.2
				h6.8c-0.1-0.6-0.5-1.2-1.1-1.7c-0.6-0.5-1.4-0.7-2.3-0.7C705.4,377.8,704.3,378.6,703.8,380.2z"/>
			<path class="st3" d="M729.1,373.2c2,0,3.6,0.6,4.9,1.8c1.3,1.2,1.9,2.8,1.9,4.9v11.4h-5.7v-9.7c0-1.1-0.3-1.9-0.8-2.4
				c-0.5-0.5-1.2-0.8-2.1-0.8c-0.9,0-1.6,0.3-2.2,0.9s-0.8,1.4-0.8,2.5v9.5h-5.7v-17.7h5.7v1.5C725.4,373.8,727,373.2,729.1,373.2z"
				/>
			<path class="st3" d="M747.8,391.7c-2.7,0-5-0.9-6.8-2.6c-1.8-1.7-2.7-3.9-2.7-6.7c0-2.7,0.9-4.9,2.7-6.6c1.8-1.7,4-2.6,6.6-2.6
				c2.6,0,4.7,0.8,6.4,2.4c1.7,1.6,2.5,3.7,2.5,6.3c0,0.5,0,1.1-0.1,1.8h-12.3c0.2,1.1,0.6,2,1.3,2.5c0.7,0.6,1.4,0.9,2.4,0.9
				c0.8,0,1.5-0.2,2-0.6c0.6-0.4,0.9-0.9,1.1-1.6l5,1.3c-0.5,1.8-1.4,3.1-2.9,4C751.4,391.2,749.7,391.7,747.8,391.7z M744.2,380.2
				h6.8c-0.1-0.6-0.5-1.2-1.1-1.7c-0.6-0.5-1.4-0.7-2.3-0.7C745.9,377.8,744.8,378.6,744.2,380.2z"/>
		</g>
	</g>
	<g>
		<path class="st3" d="M230.3,394c65.3,0,118.2-52.9,118.2-118.2h43.6c0,89.4-72.4,161.8-161.8,161.8S68.5,365.2,68.5,275.8h43.6
			C112.1,341.1,165,394,230.3,394z"/>
		<path class="st3" d="M230.3,157.6c65.3,0,118.2,52.9,118.2,118.2h-43c0-41.5-33.6-75.1-75.1-75.1c-41.5,0-75.1,33.7-75.1,75.1h-43
			C112.1,210.6,165,157.6,230.3,157.6z"/>
	</g>
</g>
</svg>
