<svg width="30" height="30" viewBox="0 0 30 30" fill="none" xmlns="http://www.w3.org/2000/svg">
<path fill-rule="evenodd" clip-rule="evenodd" d="M0 0H30V30H0V0Z" fill="#F3F8FF"/>
<path d="M16.0154 0.0302734C23.627 0.0302734 29.8547 6.25799 29.8547 13.8696V16.0319C29.8547 23.6436 23.627 29.8713 16.0154 29.8713H13.8531C6.24144 29.8713 0.0137329 23.6436 0.0137329 16.0319V13.8696C0.0137329 6.25799 6.24144 0.0302734 13.8531 0.0302734H16.0154ZM15.2063 7.53052L15.0137 7.53027C13.4104 7.53027 11.807 7.58327 11.807 7.58327C9.46519 7.58327 7.56673 9.48172 7.56673 11.8236C7.56673 11.8236 7.51806 13.2003 7.514 14.6781L7.51373 14.8713C7.51373 16.5258 7.56673 18.237 7.56673 18.237C7.56673 20.5788 9.46519 22.4773 11.807 22.4773C11.807 22.4773 13.3061 22.5303 14.8547 22.5303C16.5093 22.5303 18.2735 22.4773 18.2735 22.4773C20.6153 22.4773 22.4607 20.6319 22.4607 18.29C22.4607 18.29 22.5137 16.5981 22.5137 14.9773L22.5128 14.5969C22.5056 13.1427 22.4607 11.7705 22.4607 11.7705C22.4607 9.42869 20.6153 7.58327 18.2734 7.58327C18.2734 7.58327 16.7469 7.53443 15.2063 7.53052ZM15.0137 8.88024C16.3285 8.88024 18.0143 8.92372 18.0143 8.92372C19.9346 8.92372 21.1203 10.1094 21.1203 12.0297C21.1203 12.0297 21.1637 13.6867 21.1637 14.9867C21.1637 16.3158 21.1203 18.0307 21.1203 18.0307C21.1203 19.9511 19.9346 21.1367 18.0143 21.1367C18.0143 21.1367 16.5235 21.1733 15.23 21.1794L14.8834 21.1802C13.6135 21.1802 12.0662 21.1367 12.0662 21.1367C10.1459 21.1367 8.90721 19.898 8.90721 17.9777C8.90721 17.9777 8.86373 16.2566 8.86373 14.8998C8.86373 13.63 8.90721 12.0297 8.90721 12.0297C8.90721 10.1094 10.1459 8.92372 12.0662 8.92372C12.0662 8.92372 13.699 8.88024 15.0137 8.88024ZM15.0137 11.1883C12.8919 11.1883 11.1718 12.9084 11.1718 15.0302C11.1718 17.1521 12.8919 18.8721 15.0137 18.8721C17.1355 18.8721 18.8556 17.1521 18.8556 15.0302C18.8556 12.9084 17.1355 11.1883 15.0137 11.1883ZM15.0137 12.5302C16.3944 12.5302 17.5137 13.6495 17.5137 15.0302C17.5137 16.4109 16.3944 17.5302 15.0137 17.5302C13.633 17.5302 12.5137 16.4109 12.5137 15.0302C12.5137 13.6495 13.633 12.5302 15.0137 12.5302ZM19.0394 10.1222C18.5268 10.1222 18.1111 10.5398 18.1111 11.0551C18.1111 11.5703 18.5268 11.9879 19.0394 11.9879C19.5521 11.9879 19.9677 11.5703 19.9677 11.0551C19.9677 10.5398 19.5521 10.1222 19.0394 10.1222Z" fill="#F3F8FF"/>
</svg>
