<svg width="30" height="30" viewBox="0 0 30 30" fill="none" xmlns="http://www.w3.org/2000/svg">
<path fill-rule="evenodd" clip-rule="evenodd" d="M30 30H23.3696V19.4538C23.3696 16.6933 22.3324 14.8089 20.0518 14.8089C18.3073 14.8089 17.3371 16.0806 16.8856 17.3061C16.7162 17.7461 16.7427 18.3588 16.7427 18.9716V30H10.174C10.174 30 10.2587 11.3184 10.174 9.62029H16.7427V12.8187C17.1308 11.4203 19.2298 9.42435 22.5794 9.42435C26.7351 9.42435 30 12.3558 30 18.6681V30ZM3.53127 7.07114H3.48895C1.3723 7.07114 0 5.51322 0 3.53844C0 1.52525 1.41286 0 3.57185 0C5.72907 0 7.0555 1.52143 7.09783 3.5327C7.09783 5.50747 5.72906 7.07114 3.53127 7.07114ZM0.756683 9.62029H6.60395V30H0.756683V9.62029Z" fill="white"/>
</svg>
