<svg width="163" height="65" viewBox="0 0 163 65" fill="none" xmlns="http://www.w3.org/2000/svg">
<path d="M37.6259 54.553C52.5536 54.553 64.6467 42.4514 64.6467 27.513H74.6138C74.6138 47.9646 58.0629 64.5272 37.6259 64.5272C17.1888 64.5272 0.637939 47.9646 0.637939 27.513H10.605C10.605 42.4514 22.6981 54.553 37.6259 54.553Z" fill="#00217E"/>
<path d="M37.6261 0.472839C52.5539 0.472839 64.647 12.5745 64.647 27.5129H54.817C54.817 18.0191 47.136 10.3326 37.649 10.3326C28.162 10.3326 20.4809 18.042 20.4809 27.5129H10.651C10.6053 12.5974 22.6984 0.472839 37.6261 0.472839Z" fill="#00A4DC"/>
<path d="M99.0615 47.1638C94.9009 47.1638 91.4718 45.7912 88.7286 43.0689C85.9854 40.3466 84.6138 36.8236 84.6138 32.5C84.6138 28.1534 85.9854 24.6304 88.7286 21.9081C91.4718 19.1858 94.9238 17.8361 99.0615 17.8361C102.262 17.8361 105.097 18.6139 107.543 20.1695C109.989 21.7251 111.589 23.967 112.32 26.9181L105.805 28.794C105.462 27.4443 104.662 26.3462 103.473 25.5226C102.262 24.6991 100.799 24.2873 99.0615 24.2873C96.8669 24.2873 95.0609 25.0422 93.6664 26.5749C92.272 28.0848 91.5633 30.0751 91.5633 32.5228C91.5633 34.9935 92.272 36.9838 93.6664 38.4936C95.0609 40.0035 96.8669 40.7584 99.0615 40.7584C100.799 40.7584 102.262 40.3466 103.473 39.523C104.685 38.6995 105.485 37.6014 105.851 36.2517L112.32 38.1276C111.589 41.0558 109.989 43.2977 107.543 44.8762C105.097 46.386 102.262 47.1638 99.0615 47.1638Z" fill="#00217E"/>
<path d="M115.59 46.7756V18.2486H135.204V24.288H122.265V29.4581H134.404V35.4975H122.265V40.7591H135.524V46.7985H115.59V46.7756Z" fill="#00217E"/>
<path d="M150.886 47.1639C147.412 47.1639 144.623 46.0887 142.519 43.9383C140.416 41.7879 139.365 38.9741 139.365 35.474V18.2022L146.04 18.248V35.5197C146.04 37.0982 146.497 38.3564 147.412 39.3172C148.326 40.278 149.492 40.7356 150.932 40.7356C152.372 40.7356 153.515 40.2552 154.384 39.3172C155.253 38.3564 155.687 37.0982 155.687 35.5197V18.248L162.362 18.2937V35.5655C162.362 39.0427 161.311 41.8565 159.207 43.984C157.104 46.1115 154.338 47.1639 150.886 47.1639Z" fill="#00217E"/>
</svg>
