<svg width="80" height="80" viewBox="0 0 80 80" fill="none" xmlns="http://www.w3.org/2000/svg">
<path d="M73.0857 31.4384H7.28538C4.16794 31.4384 2.83189 28.0002 5.28131 26.3656L38.1815 4.55257C38.7889 4.19078 39.4808 4 40.1855 4C40.8903 4 41.5822 4.19078 42.1896 4.55257L75.0897 26.3656C77.5392 28.0002 76.2031 31.4384 73.0857 31.4384Z" stroke="#00217E" stroke-width="4" stroke-linecap="round" stroke-linejoin="round"/>
<path d="M73.5858 62.439H6.78343C5.24618 62.439 4 63.7007 4 65.2572V73.7119C4 75.2683 5.24618 76.5301 6.78343 76.5301H73.5858C75.123 76.5301 76.3692 75.2683 76.3692 73.7119V65.2572C76.3692 63.7007 75.123 62.439 73.5858 62.439Z" stroke="#00217E" stroke-width="4" stroke-linecap="round" stroke-linejoin="round"/>
<path d="M12.3503 31.4385V62.4389M26.2675 31.4385V62.4389M40.1846 31.4385V62.4389M54.1018 31.4385V62.4389M68.0189 31.4385V62.4389" stroke="#00217E" stroke-width="4" stroke-linecap="round" stroke-linejoin="round"/>
</svg>
