<svg width="60" height="60" viewBox="0 0 60 60" fill="none" xmlns="http://www.w3.org/2000/svg">
<g clip-path="url(#clip0_749_229)">
<path d="M10.5762 17.2906V37.0836C10.5762 47.8587 19.117 56.5917 29.6511 56.5917C40.1852 56.5917 48.726 47.8587 48.726 37.0836V17.3012L29.5365 10.85L10.5762 17.2906ZM29.5312 7L52.3022 14.652V37.0836C52.3022 49.8769 42.1599 60.25 29.6511 60.25C17.1424 60.25 7 49.8769 7 37.0836V14.652L29.5312 7ZM41.3071 24.2663C41.1332 24.1067 40.9288 23.9837 40.7063 23.9046C40.4837 23.8256 40.2475 23.7922 40.0117 23.8063C39.776 23.8205 39.5455 23.882 39.334 23.9871C39.1225 24.0922 38.9344 24.2388 38.7809 24.4181L27.2794 37.648L19.8498 29.4342C19.6928 29.2584 19.5019 29.1159 19.2886 29.0153C19.0753 28.9147 18.8439 28.858 18.6082 28.8486C18.3725 28.8391 18.1373 28.8772 17.9166 28.9604C17.6959 29.0436 17.4942 29.1703 17.3236 29.333C16.9742 29.6667 16.7685 30.1232 16.7501 30.6057C16.7317 31.0883 16.902 31.5591 17.225 31.9183L25.9923 41.6098C26.1593 41.7974 26.3646 41.947 26.5943 42.0487C26.824 42.1503 27.0729 42.2016 27.3241 42.1991C27.5754 42.1966 27.8231 42.1403 28.0508 42.0341C28.2784 41.9278 28.4806 41.7741 28.6438 41.5832L41.4537 26.8489C41.7698 26.4838 41.9313 26.01 41.9039 25.528C41.8766 25.0459 41.6625 24.5934 41.3071 24.2663Z" fill="#001B7A"/>
</g>
<defs>
<clipPath id="clip0_749_229">
<rect width="60" height="60" fill="white"/>
</clipPath>
</defs>
</svg>
