<svg width="77" height="77" viewBox="0 0 77 77" fill="none" xmlns="http://www.w3.org/2000/svg">
<path d="M71.0856 29.4384H5.28529C2.16785 29.4384 0.831801 26.0002 3.28122 24.3656L36.1814 2.55257C36.7888 2.19078 37.4807 2 38.1854 2C38.8902 2 39.5821 2.19078 40.1895 2.55257L73.0897 24.3656C75.5391 26.0002 74.203 29.4384 71.0856 29.4384Z" stroke="#00217E" stroke-width="4" stroke-linecap="round" stroke-linejoin="round"/>
<path d="M71.5858 60.4388H4.78343C3.24618 60.4388 2 61.7006 2 63.2571V71.7117C2 73.2682 3.24618 74.53 4.78343 74.53H71.5858C73.123 74.53 74.3692 73.2682 74.3692 71.7117V63.2571C74.3692 61.7006 73.123 60.4388 71.5858 60.4388Z" stroke="#00217E" stroke-width="4" stroke-linecap="round" stroke-linejoin="round"/>
<path d="M10.3503 29.4385V60.4389M24.2674 29.4385V60.4389M38.1845 29.4385V60.4389M52.1017 29.4385V60.4389M66.0188 29.4385V60.4389" stroke="#00217E" stroke-width="4" stroke-linecap="round" stroke-linejoin="round"/>
</svg>
