<svg width="61" height="71" viewBox="0 0 61 71" fill="none" xmlns="http://www.w3.org/2000/svg">
<path d="M4.76828 13.7207V40.1114C4.76828 54.4783 16.156 66.1223 30.2015 66.1223C44.247 66.1223 55.6347 54.4783 55.6347 40.1114V13.735L30.0487 5.1333L4.76828 13.7207ZM30.0416 0L60.403 10.2027V40.1114C60.403 57.1692 46.8798 71 30.2015 71C13.5232 71 0 57.1692 0 40.1114V10.2027L30.0416 0ZM45.7428 23.0217C45.5109 22.8089 45.2384 22.6449 44.9417 22.5395C44.645 22.4341 44.33 22.3896 44.0157 22.4085C43.7013 22.4273 43.394 22.5093 43.112 22.6494C42.83 22.7896 42.5792 22.985 42.3745 23.2241L27.0392 40.864L17.1331 29.9123C16.9237 29.6779 16.6692 29.4879 16.3848 29.3538C16.1004 29.2196 15.7918 29.144 15.4776 29.1314C15.1633 29.1188 14.8497 29.1695 14.5555 29.2805C14.2612 29.3915 13.9923 29.5605 13.7648 29.7774C13.2989 30.2223 13.0247 30.8309 13.0001 31.4743C12.9756 32.1177 13.2027 32.7454 13.6333 33.2244L25.3231 46.1464C25.5457 46.3965 25.8194 46.5961 26.1257 46.7316C26.432 46.8671 26.7638 46.9355 27.0988 46.9321C27.4338 46.9288 27.7642 46.8537 28.0677 46.7121C28.3712 46.5704 28.6408 46.3655 28.8584 46.111L45.9382 26.4652C46.3598 25.9784 46.5751 25.3467 46.5386 24.704C46.5021 24.0612 46.2167 23.4579 45.7428 23.0217Z" fill="#001B7A"/>
</svg>
